<?xml version="1.0" standalone="no"?>
<!DOCTYPE svg PUBLIC "-//W3C//DTD SVG 20010904//EN"
 "http://www.w3.org/TR/2001/REC-SVG-20010904/DTD/svg10.dtd">
<svg version="1.0" xmlns="http://www.w3.org/2000/svg"
 width="500.000000pt" height="500.000000pt" viewBox="0 0 500.000000 500.000000"
 preserveAspectRatio="xMidYMid meet">

<g transform="translate(0.000000,500.000000) scale(0.100000,-0.100000)"
fill="#000000" stroke="none">
<path d="M2308 4853 c-36 -4 -55 -23 -23 -23 11 0 15 -11 15 -36 0 -44 -19
-122 -32 -130 -18 -11 -62 60 -72 119 -6 30 -4 37 9 37 8 0 15 5 15 11 0 7
-17 9 -52 4 -62 -8 -69 -13 -45 -26 9 -6 17 -17 17 -26 0 -21 47 -113 70 -138
40 -43 69 -235 35 -235 -8 0 -15 -4 -15 -10 0 -13 90 -13 110 0 13 9 12 13 -8
28 -18 14 -25 34 -33 92 -11 77 -10 103 10 205 19 101 21 105 36 105 8 0 15 7
15 15 0 8 -3 14 -7 13 -5 -1 -25 -3 -45 -5z"/>
<path d="M2710 4836 c0 -9 8 -16 20 -16 11 0 20 -3 20 -7 0 -9 -58 -336 -65
-370 -3 -13 -13 -23 -23 -23 -35 -1 20 -30 56 -30 29 0 32 2 23 14 -9 11 -6
41 14 131 15 65 30 127 34 139 8 19 9 18 15 -11 4 -17 11 -68 15 -112 12 -116
22 -120 59 -21 27 74 81 190 89 190 7 0 0 -47 -26 -173 -12 -55 -21 -114 -21
-133 0 -22 -6 -37 -15 -40 -26 -11 -16 -21 26 -28 48 -8 60 -1 35 17 -17 12
-16 23 14 202 17 104 34 192 36 195 3 3 11 5 16 5 6 0 13 5 15 11 4 13 -77 29
-88 17 -4 -4 -26 -53 -49 -108 -41 -97 -60 -131 -60 -108 0 11 -26 169 -36
216 -6 28 -22 39 -79 53 -19 5 -25 2 -25 -10z"/>
<path d="M1890 4779 c-51 -14 -90 -30 -90 -38 0 -3 10 -11 23 -16 19 -9 29
-36 68 -188 38 -147 43 -180 32 -189 -26 -21 3 -28 55 -13 52 16 70 35 32 35
-20 0 -32 30 -46 118 -6 40 -5 43 24 53 64 22 94 130 54 190 -40 61 -70 70
-152 48z m99 -53 c34 -73 19 -166 -27 -166 -17 0 -27 26 -69 183 -4 16 1 18
39 15 36 -3 45 -8 57 -32z"/>
<path d="M3133 4741 c3 -39 -105 -381 -121 -381 -26 0 -6 -23 30 -36 39 -13
54 -9 38 11 -8 9 0 40 24 106 19 52 47 132 62 179 15 47 34 91 42 97 19 16 17
18 -35 36 l-43 15 3 -27z"/>
<path d="M3280 4701 c0 -6 5 -13 11 -17 13 -7 9 -24 -25 -119 -48 -134 -94
-239 -110 -250 -24 -18 -20 -31 14 -45 38 -16 68 -7 50 15 -10 12 -2 39 45
145 32 71 61 128 64 125 4 -2 3 -48 -2 -102 -20 -228 -10 -306 27 -211 70 179
152 358 163 354 7 -3 15 -1 18 3 5 10 -74 45 -83 37 -3 -3 1 -13 8 -21 11 -13
11 -23 -1 -58 -18 -56 -105 -248 -110 -242 -2 2 -1 68 4 147 9 166 4 224 -23
238 -24 13 -50 13 -50 1z"/>
<path d="M1573 4665 c-74 -34 -92 -55 -50 -55 20 0 29 -15 71 -117 27 -65 60
-145 74 -177 19 -42 23 -61 14 -64 -17 -5 -15 -22 3 -22 22 0 95 31 95 40 0 5
-10 10 -22 12 -18 2 -28 17 -45 63 -29 79 -28 92 6 109 37 20 55 64 48 123 -4
39 -12 54 -46 85 -22 21 -48 38 -58 38 -10 -1 -51 -16 -90 -35z m111 -28 c31
-40 46 -103 34 -139 -9 -27 -36 -44 -48 -31 -19 21 -81 176 -74 183 8 7 30 15
56 19 4 0 18 -14 32 -32z"/>
<path d="M1323 4458 c5 -72 13 -100 62 -210 48 -111 54 -130 43 -148 -7 -11
-17 -20 -23 -20 -28 0 -251 261 -257 300 -4 33 -19 34 -51 5 -34 -32 -35 -47
-2 -39 20 5 31 -1 55 -26 16 -18 30 -38 30 -46 0 -16 -61 -64 -81 -64 -21 0
-70 66 -63 84 11 28 -22 18 -62 -19 -36 -32 -37 -35 -16 -35 28 0 43 -14 169
-169 59 -72 99 -129 96 -137 -8 -21 6 -17 44 12 39 29 42 41 11 46 -23 3 -134
126 -148 163 -10 27 -4 40 37 71 l34 26 26 -23 c14 -13 52 -56 84 -96 43 -54
56 -78 52 -94 -6 -21 -5 -21 21 -4 14 10 30 23 34 29 4 6 25 21 47 32 47 25
55 41 23 46 -17 2 -32 20 -54 63 -51 96 -51 102 -8 120 34 14 39 14 56 -2 36
-32 87 -128 81 -151 -7 -28 0 -28 40 0 18 13 34 24 36 25 2 1 -21 37 -51 80
-137 199 -197 263 -246 263 l-25 0 6 -82z m69 -5 c68 -71 70 -108 8 -115 -20
-3 -26 3 -37 35 -19 55 -27 117 -16 117 5 0 25 -17 45 -37z"/>
<path d="M3580 4530 c0 -5 7 -10 15 -10 8 0 15 -3 15 -7 0 -9 -106 -208 -148
-275 -33 -55 -54 -70 -67 -48 -9 15 -25 12 -25 -3 0 -17 114 -67 150 -67 35 0
124 54 153 92 96 128 99 261 7 308 -41 21 -100 27 -100 10z m118 -52 c20 -20
14 -60 -22 -136 -54 -110 -123 -193 -163 -192 -42 1 -28 41 71 204 24 39 51
86 60 104 17 34 34 40 54 20z"/>
<path d="M3880 4353 c-52 -19 -61 -60 -36 -168 13 -53 13 -64 -1 -93 -28 -60
-104 -102 -158 -88 -50 13 -22 86 34 86 42 0 40 22 -4 43 -44 21 -49 21 -41 1
3 -9 -3 -27 -14 -41 -22 -29 -26 -80 -7 -104 34 -44 108 -52 153 -17 72 56 91
113 72 213 -11 61 -10 67 9 93 26 35 49 39 63 12 9 -18 8 -25 -6 -41 -24 -27
-12 -34 25 -14 36 18 38 28 14 53 -10 9 -25 27 -33 39 -16 23 -46 34 -70 26z"/>
<path d="M2311 4328 c10 -7 3 -8 -22 -4 -57 10 -184 -12 -324 -55 -71 -22
-139 -44 -150 -49 -38 -17 -160 -72 -185 -84 -14 -6 -43 -23 -65 -36 -22 -14
-44 -24 -48 -22 -4 1 -7 -6 -5 -15 2 -12 -3 -18 -17 -18 -28 0 -127 -64 -118
-77 3 -6 1 -8 -5 -5 -12 8 -98 -61 -94 -75 1 -5 -2 -7 -6 -4 -25 15 -274 -267
-369 -419 -47 -76 -144 -270 -146 -294 -1 -12 -4 -21 -8 -21 -5 0 -13 -22 -53
-150 -8 -25 -17 -67 -21 -95 -4 -27 -11 -54 -15 -60 -31 -39 -42 -429 -17
-595 15 -98 73 -337 87 -355 4 -5 13 -28 20 -50 19 -62 98 -221 153 -310 101
-162 258 -341 402 -458 132 -108 374 -250 487 -286 21 -7 40 -16 43 -21 5 -8
73 -25 88 -22 4 1 7 -3 7 -8 0 -6 13 -10 28 -10 15 0 32 -4 38 -9 8 -8 37 -15
154 -36 14 -3 50 -7 79 -11 30 -3 59 -8 63 -10 4 -3 8 0 8 7 0 8 4 8 15 -1 9
-8 27 -10 46 -6 18 3 28 2 24 -4 -4 -6 21 -10 67 -10 83 0 376 28 392 37 5 4
26 10 45 14 94 19 203 50 242 68 24 10 85 37 134 59 50 22 89 45 87 51 -1 7 2
10 7 6 13 -7 56 14 146 73 81 54 72 47 155 113 144 115 315 309 414 472 28 45
46 84 42 93 -3 8 -2 12 4 9 12 -7 33 32 24 47 -4 6 -3 8 3 5 10 -6 78 140 104
223 92 296 114 556 72 875 -3 28 -12 65 -20 82 -7 18 -12 36 -11 40 0 5 -1 15
-4 23 -3 8 -11 40 -18 70 -12 55 -76 222 -109 289 -32 62 -82 153 -92 165 -5
6 -24 34 -41 61 -88 137 -233 293 -389 417 -97 78 -219 158 -239 158 -6 0 -10
5 -10 11 0 6 -7 8 -16 5 -8 -3 -12 -2 -9 4 3 6 2 10 -3 10 -6 0 -50 18 -99 41
-48 22 -97 45 -108 50 -29 13 -184 60 -214 65 -14 3 -37 9 -51 14 -50 19 -199
32 -394 35 -133 2 -195 0 -185 -7z m514 -97 c121 -25 177 -40 275 -76 41 -15
83 -27 92 -28 9 -1 15 -3 13 -5 -1 -2 43 -27 98 -56 127 -65 225 -129 334
-219 101 -82 250 -249 334 -374 63 -93 166 -294 181 -351 8 -32 13 -40 20 -30
8 10 9 9 5 -3 -3 -9 4 -47 15 -85 43 -146 59 -256 64 -449 9 -272 -19 -451
-105 -684 -32 -87 -34 -91 -96 -206 -122 -228 -330 -464 -535 -604 -19 -13
-53 -37 -75 -52 -190 -130 -527 -246 -765 -263 -249 -19 -488 1 -696 58 -121
33 -361 137 -414 180 -8 7 -36 25 -62 39 -26 15 -53 33 -60 40 -7 6 -40 32
-73 57 -58 43 -210 189 -250 240 -11 14 -38 48 -61 75 -85 103 -208 328 -249
455 -10 30 -21 60 -25 65 -12 17 -28 86 -52 215 -30 164 -32 491 -5 640 24
134 83 324 127 410 10 19 33 64 50 100 66 133 212 328 330 441 276 266 642
443 1007 488 130 16 462 6 578 -18z"/>
<path d="M3165 3430 c-10 -16 5 -71 20 -76 29 -11 96 41 78 60 -11 11 -43 6
-44 -6 0 -7 -5 -3 -11 10 -12 23 -32 29 -43 12z"/>
<path d="M3398 3224 c-13 -13 -19 -14 -37 -3 -18 12 -23 11 -37 -3 -16 -16
-15 -19 10 -53 40 -52 55 -54 88 -15 48 58 27 125 -24 74z"/>
<path d="M2553 3193 c9 -2 23 -2 30 0 6 3 -1 5 -18 5 -16 0 -22 -2 -12 -5z"/>
<path d="M2318 3163 c7 -3 16 -2 19 1 4 3 -2 6 -13 5 -11 0 -14 -3 -6 -6z"/>
<path d="M2099 3139 l-24 -20 28 17 c15 9 27 18 27 20 0 8 -8 4 -31 -17z"/>
<path d="M1978 3083 c7 -3 16 -2 19 1 4 3 -2 6 -13 5 -11 0 -14 -3 -6 -6z"/>
<path d="M2030 3038 c0 -12 3 -18 7 -14 11 10 12 36 2 36 -5 0 -9 -10 -9 -22z"/>
<path d="M2368 3049 c17 -5 32 -13 32 -17 0 -4 10 -18 21 -32 l20 -25 -7 25
c-10 40 -34 60 -68 59 l-31 -1 33 -9z"/>
<path d="M2200 3040 c0 -5 5 -10 10 -10 6 0 10 5 10 10 0 6 -4 10 -10 10 -5 0
-10 -4 -10 -10z"/>
<path d="M1780 3009 c0 -5 5 -7 10 -4 6 3 10 8 10 11 0 2 -4 4 -10 4 -5 0 -10
-5 -10 -11z"/>
<path d="M3168 3009 c-10 -5 -18 -21 -18 -35 0 -26 45 -124 58 -124 4 0 30 14
59 30 75 43 95 90 48 112 -21 9 -28 8 -45 -7 -19 -17 -21 -17 -46 9 -30 29
-32 30 -56 15z"/>
<path d="M1949 2999 c-10 -6 -4 -9 19 -9 17 0 32 2 32 4 0 9 -39 13 -51 5z"/>
<path d="M2014 2989 c-19 -21 -19 -21 9 -8 15 7 27 16 27 21 0 14 -16 9 -36
-13z"/>
<path d="M2770 2992 c-12 -10 -21 -25 -19 -33 3 -11 12 -6 32 18 31 36 23 44
-13 15z"/>
<path d="M2618 2993 c7 -3 16 -2 19 1 4 3 -2 6 -13 5 -11 0 -14 -3 -6 -6z"/>
<path d="M2135 2980 c-3 -5 -1 -10 4 -10 6 0 11 5 11 10 0 6 -2 10 -4 10 -3 0
-8 -4 -11 -10z"/>
<path d="M2254 2968 c-13 -16 -14 -19 -2 -10 20 16 58 0 58 -24 0 -20 43 -38
74 -30 39 10 31 23 -10 18 -29 -4 -36 -1 -41 17 -3 11 -10 21 -15 21 -5 0 -6
5 -3 10 3 6 2 10 -4 10 -5 0 -16 2 -23 5 -8 3 -23 -5 -34 -17z"/>
<path d="M2083 2973 c9 -2 23 -2 30 0 6 3 -1 5 -18 5 -16 0 -22 -2 -12 -5z"/>
<path d="M1941 2937 c-1 -10 -8 -20 -16 -23 -17 -7 -21 -24 -5 -24 13 0 32 38
26 53 -2 7 -5 4 -5 -6z"/>
<path d="M1841 2903 c1 -22 2 -23 6 -8 3 11 10 23 17 27 7 5 5 8 -6 8 -13 0
-18 -7 -17 -27z"/>
<path d="M1990 2895 c-7 -8 -9 -15 -6 -15 4 0 14 7 22 15 9 8 11 15 6 15 -5 0
-15 -7 -22 -15z"/>
<path d="M2233 2885 c-3 -9 -3 -18 -1 -21 3 -3 8 4 11 16 6 23 -1 27 -10 5z"/>
<path d="M1616 2853 c-6 -14 -5 -15 5 -6 7 7 10 15 7 18 -3 3 -9 -2 -12 -12z"/>
<path d="M1971 2854 c0 -11 3 -14 6 -6 3 7 2 16 -1 19 -3 4 -6 -2 -5 -13z"/>
<path d="M2770 2863 c8 -3 21 -10 28 -16 9 -7 11 -6 6 7 -3 9 -16 16 -28 15
-14 0 -16 -2 -6 -6z"/>
<path d="M3050 2866 c0 -2 8 -10 18 -17 15 -13 16 -12 3 4 -13 16 -21 21 -21
13z"/>
<path d="M2195 2840 c-3 -5 -2 -10 4 -10 5 0 13 5 16 10 3 6 2 10 -4 10 -5 0
-13 -4 -16 -10z"/>
<path d="M2448 2823 c-10 -2 -18 -9 -18 -13 0 -6 10 -6 25 0 14 5 30 8 37 6 7
-3 29 -7 48 -9 l35 -6 -30 14 c-30 14 -64 17 -97 8z"/>
<path d="M1602 2800 c0 -14 2 -19 5 -12 2 6 2 18 0 25 -3 6 -5 1 -5 -13z"/>
<path d="M1841 2809 c-1 -25 -44 -40 -79 -27 -37 14 -62 5 -62 -24 1 -21 2
-21 11 -5 8 14 19 17 52 12 32 -4 48 -1 66 13 13 11 21 25 18 33 -4 11 -6 10
-6 -2z"/>
<path d="M1940 2800 c0 -5 8 -10 18 -10 10 0 23 -5 30 -12 7 -7 12 -9 12 -4 0
13 -28 36 -44 36 -9 0 -16 -4 -16 -10z"/>
<path d="M2397 2780 c-3 -11 -2 -20 3 -20 4 0 10 9 13 20 3 11 2 20 -3 20 -4
0 -10 -9 -13 -20z"/>
<path d="M2620 2784 c19 -8 40 -21 45 -27 12 -15 133 -87 146 -87 19 0 8 44
-17 66 -39 37 -79 54 -121 52 -21 -2 -49 1 -63 5 -14 4 -9 0 10 -9z"/>
<path d="M3111 2774 c0 -11 3 -14 6 -6 3 7 2 16 -1 19 -3 4 -6 -2 -5 -13z"/>
<path d="M2902 2735 c-19 -42 -14 -53 8 -17 22 36 24 42 12 42 -5 0 -14 -11
-20 -25z"/>
<path d="M3073 2697 c-97 -99 -133 -134 -156 -153 -44 -37 -161 -121 -207
-149 -25 -15 -48 -33 -52 -39 -5 -7 -8 -7 -8 2 0 7 -5 10 -11 7 -6 -4 -8 -9
-5 -12 3 -3 -6 -17 -20 -31 -25 -28 -27 -47 -3 -47 8 0 17 -4 21 -10 4 -5 8
-1 8 10 0 12 12 28 30 38 16 10 35 23 42 30 7 7 29 23 49 35 l36 22 13 -26
c11 -20 12 -29 2 -44 -7 -11 -12 -32 -11 -47 l1 -28 7 30 c4 17 13 39 19 51 8
16 8 27 -4 49 -8 15 -13 29 -12 30 2 0 34 25 72 54 74 57 86 57 86 -5 0 -28
-6 -34 -45 -53 -25 -12 -49 -21 -55 -21 -5 0 -10 -9 -10 -20 0 -25 10 -25 36
-2 66 61 119 69 146 25 12 -20 18 -23 18 -11 0 9 -15 32 -32 51 -18 19 -38 49
-45 66 -11 30 -10 33 36 79 26 26 64 66 85 89 34 39 36 42 19 52 -15 8 -25 3
-50 -22z"/>
<path d="M1968 2673 c-53 -59 -70 -91 -58 -113 11 -21 14 -19 71 37 64 63 78
103 36 103 -13 0 -35 -12 -49 -27z"/>
<path d="M1834 2675 c-3 -8 -4 -20 -2 -27 3 -7 7 -1 10 15 6 29 1 36 -8 12z"/>
<path d="M2905 2670 c3 -5 8 -10 11 -10 2 0 4 5 4 10 0 6 -5 10 -11 10 -5 0
-7 -4 -4 -10z"/>
<path d="M3206 2645 c7 -44 11 -51 20 -42 4 3 -1 23 -10 44 l-16 38 6 -40z"/>
<path d="M1695 2660 c-3 -5 -2 -10 4 -10 5 0 13 5 16 10 3 6 2 10 -4 10 -5 0
-13 -4 -16 -10z"/>
<path d="M2646 2629 c-14 -33 -11 -73 5 -63 5 3 9 19 9 35 0 34 22 48 46 28
10 -8 14 -24 12 -45 -3 -29 -2 -31 18 -22 l22 10 -22 42 c-16 31 -28 42 -49
44 -23 3 -30 -2 -41 -29z"/>
<path d="M1657 2643 c-10 -9 -9 -23 2 -23 5 0 11 7 15 15 5 15 -5 20 -17 8z"/>
<path d="M1860 2606 c0 -2 7 -7 16 -10 8 -3 12 -2 9 4 -6 10 -25 14 -25 6z"/>
<path d="M1735 2541 c-1 -33 1 -36 13 -24 9 8 12 23 8 38 -10 37 -21 30 -21
-14z"/>
<path d="M2036 2558 c-19 -31 -24 -70 -8 -75 8 -3 12 5 12 24 0 58 45 72 56
18 7 -39 24 -48 24 -12 0 31 -27 67 -50 67 -11 0 -26 -10 -34 -22z"/>
<path d="M2779 2567 c6 -8 29 -20 51 -27 32 -11 43 -11 53 -1 7 7 8 11 2 10
-19 -5 -95 13 -95 22 0 5 -5 9 -11 9 -8 0 -8 -4 0 -13z"/>
<path d="M1912 2509 c-9 -13 -22 -20 -40 -19 -43 3 -66 1 -59 -6 3 -4 22 -8
41 -9 35 -2 76 23 76 45 0 15 -4 12 -18 -11z"/>
<path d="M2502 2519 c-13 -5 -81 -16 -150 -25 -70 -8 -129 -17 -131 -20 -12
-12 19 -61 56 -90 75 -57 173 -53 231 9 42 45 61 138 28 136 -6 0 -22 -4 -34
-10z"/>
<path d="M1681 2483 l-24 -16 23 -19 c12 -10 30 -18 39 -17 12 0 11 4 -7 16
-21 15 -22 17 -6 34 21 24 6 25 -25 2z"/>
<path d="M1791 2454 c0 -11 3 -14 6 -6 3 7 2 16 -1 19 -3 4 -6 -2 -5 -13z"/>
<path d="M2599 2438 c-8 -7 -21 -21 -28 -31 -12 -15 -12 -17 3 -11 9 3 16 12
16 20 0 7 15 18 33 23 21 6 25 9 11 10 -11 1 -27 -5 -35 -11z"/>
<path d="M1774 2411 c3 -18 6 -37 6 -42 0 -5 4 -9 9 -9 5 0 5 15 1 36 -11 46
-25 60 -16 15z"/>
<path d="M1615 2380 c3 -6 20 -10 37 -10 38 0 34 5 -10 13 -21 4 -31 3 -27 -3z"/>
<path d="M3120 2378 c0 -9 -7 -21 -15 -28 -16 -13 -20 -30 -7 -30 10 0 36 60
28 67 -3 4 -6 -1 -6 -9z"/>
<path d="M1580 2331 c0 -10 7 -24 15 -31 9 -7 13 -15 10 -18 -3 -3 14 -11 37
-18 24 -6 67 -21 96 -32 30 -12 88 -28 130 -37 72 -15 118 -35 79 -35 -9 0
-21 -8 -26 -17 -9 -16 -12 -16 -21 -3 -7 10 -12 12 -17 4 -5 -6 -15 -14 -23
-17 -8 -3 0 -6 18 -6 27 -1 32 -5 32 -25 0 -14 4 -27 9 -30 5 -4 7 3 4 14 -16
61 31 92 122 83 51 -5 55 -4 55 16 0 17 -6 21 -32 21 -70 1 -265 43 -312 67
-17 9 -40 18 -50 20 -11 2 -41 17 -68 33 -57 35 -58 36 -58 11z"/>
<path d="M1800 2331 c16 -31 32 -36 18 -7 -6 14 -15 26 -20 26 -5 0 -4 -9 2
-19z"/>
<path d="M3301 2304 c0 -11 3 -14 6 -6 3 7 2 16 -1 19 -3 4 -6 -2 -5 -13z"/>
<path d="M2391 2272 l-37 -39 -28 23 c-16 15 -40 24 -59 24 -46 0 -59 -12 -49
-41 5 -13 12 -23 16 -21 21 8 38 1 32 -14 -4 -9 -1 -23 5 -30 8 -9 8 -18 2
-26 -6 -7 -12 -23 -15 -35 -6 -24 32 -66 92 -102 l35 -21 -40 -1 c-22 -1 -46
-1 -54 0 -7 2 -10 -2 -6 -9 8 -13 60 -7 107 11 28 11 64 56 54 67 -3 3 -6 0
-6 -6 0 -7 -5 -12 -10 -12 -6 0 -5 8 2 19 7 11 16 17 20 15 4 -3 8 2 8 10 0 9
9 21 20 28 26 17 25 34 -2 41 -12 4 -19 9 -15 13 4 4 -1 16 -10 27 -17 18 -17
19 0 32 11 8 15 19 11 30 -6 16 -3 17 31 11 l38 -8 -15 24 c-11 16 -27 24 -53
26 -32 3 -42 -2 -74 -36z"/>
<path d="M3173 2263 c7 -31 -15 -58 -39 -49 -18 7 -18 6 -2 -10 17 -17 18 -17
38 1 22 20 25 42 9 65 -9 12 -10 11 -6 -7z"/>
<path d="M3085 2250 c-3 -5 -1 -10 4 -10 6 0 11 5 11 10 0 6 -2 10 -4 10 -3 0
-8 -4 -11 -10z"/>
<path d="M1577 2235 c-4 -8 -2 -17 3 -20 6 -4 10 3 10 14 0 25 -6 27 -13 6z"/>
<path d="M2675 2220 c3 -5 8 -10 11 -10 2 0 4 5 4 10 0 6 -5 10 -11 10 -5 0
-7 -4 -4 -10z"/>
<path d="M3225 2200 c-4 -11 -17 -28 -31 -36 -13 -9 -24 -21 -24 -27 0 -13 48
31 62 56 5 10 7 21 5 24 -3 2 -8 -5 -12 -17z"/>
<path d="M1586 2155 c6 -41 31 -91 41 -81 3 3 0 13 -8 22 -8 9 -20 35 -26 58
l-13 41 6 -40z"/>
<path d="M2659 2175 c-11 -12 -22 -13 -49 -5 -32 9 -33 8 -16 -5 26 -19 60
-19 76 0 17 21 8 29 -11 10z"/>
<path d="M2838 2123 c7 -3 16 -2 19 1 4 3 -2 6 -13 5 -11 0 -14 -3 -6 -6z"/>
<path d="M1808 2113 c6 -2 18 -2 25 0 6 3 1 5 -13 5 -14 0 -19 -2 -12 -5z"/>
<path d="M2730 2109 c0 -5 5 -7 10 -4 6 3 10 8 10 11 0 2 -4 4 -10 4 -5 0 -10
-5 -10 -11z"/>
<path d="M3108 2113 c7 -3 16 -2 19 1 4 3 -2 6 -13 5 -11 0 -14 -3 -6 -6z"/>
<path d="M2554 2085 c-4 -8 -12 -15 -20 -15 -8 0 -14 -7 -14 -15 0 -12 4 -13
19 -4 23 15 45 49 31 49 -6 0 -13 -7 -16 -15z"/>
<path d="M2618 1998 c2 -51 -1 -119 -6 -150 -8 -52 -7 -58 8 -58 21 0 30 53
30 182 0 64 -4 93 -14 104 -8 8 -16 14 -18 14 -2 0 -2 -42 0 -92z"/>
<path d="M2665 2070 c3 -5 12 -7 20 -3 21 7 19 13 -6 13 -11 0 -18 -4 -14 -10z"/>
<path d="M2490 2060 c0 -5 5 -10 10 -10 6 0 10 5 10 10 0 6 -4 10 -10 10 -5 0
-10 -4 -10 -10z"/>
<path d="M1645 2040 c13 -21 86 -50 122 -48 l38 1 -35 4 c-19 3 -39 9 -44 14
-6 5 -18 9 -29 9 -11 0 -15 4 -11 12 4 7 3 8 -4 4 -7 -4 -12 -2 -12 3 0 6 -7
11 -16 11 -8 0 -12 -5 -9 -10z"/>
<path d="M2209 2023 c13 -26 26 -29 37 -10 4 6 3 9 -1 4 -5 -4 -17 1 -28 10
-19 17 -20 17 -8 -4z"/>
<path d="M2155 1991 c-17 -15 -82 -20 -94 -8 -9 9 -11 8 -6 -5 4 -10 10 -18
14 -18 3 0 17 -3 30 -7 17 -4 22 -3 17 5 -4 7 -2 10 7 7 7 -3 22 3 32 15 18
20 18 28 0 11z"/>
<path d="M2258 1972 c6 -45 -17 -111 -49 -143 -17 -16 -50 -35 -75 -41 -59
-16 -62 -43 -3 -34 74 12 128 65 151 149 10 38 9 51 -2 72 -18 33 -28 32 -22
-3z"/>
<path d="M1905 1960 c11 -5 16 -9 10 -10 -5 0 -2 -5 9 -11 14 -9 20 -8 26 1 6
9 9 9 13 -1 3 -11 11 -8 28 10 22 21 22 22 3 12 -12 -5 -23 -9 -25 -7 -2 2
-22 6 -44 9 -28 5 -34 4 -20 -3z"/>
<path d="M936 1213 c-71 -36 -152 -121 -166 -171 -13 -50 5 -101 45 -128 31
-20 46 -15 104 38 43 39 45 62 9 74 -14 4 -27 -1 -41 -15 -18 -18 -19 -21 -5
-21 9 0 20 5 23 10 3 6 10 10 16 10 18 0 8 -21 -23 -50 -44 -39 -82 -40 -103
0 -8 16 -15 36 -15 44 0 21 191 192 224 200 49 12 102 -37 76 -69 -16 -20 -1
-19 21 1 23 21 15 44 -28 77 -44 33 -74 34 -137 0z"/>
<path d="M3970 1227 c0 -7 -13 -18 -30 -25 -32 -15 -45 -41 -36 -77 10 -41 39
-49 126 -35 69 11 80 10 104 -5 39 -26 66 -77 66 -124 0 -36 -3 -41 -23 -41
-31 0 -61 33 -54 60 8 31 -25 25 -40 -7 -16 -33 -16 -46 -3 -38 6 3 22 -3 36
-14 37 -29 70 -26 105 8 36 36 38 75 7 121 -44 63 -70 75 -161 72 -71 -2 -83
0 -104 20 -29 27 -29 44 -1 51 14 4 26 0 34 -11 17 -23 27 -10 15 20 -10 27
-41 46 -41 25z"/>
<path d="M1135 1097 c5 -17 -15 -47 -95 -142 -55 -66 -107 -121 -115 -123 -22
-5 -18 -14 19 -44 42 -34 46 -34 46 -4 0 28 95 156 115 156 16 0 18 -8 15 -55
-2 -32 -26 -71 -73 -122 -25 -27 -28 -35 -17 -48 17 -21 40 -19 40 4 0 10 7
24 15 31 20 17 71 108 79 143 5 20 12 27 30 27 29 0 76 52 76 83 -1 27 -26 58
-75 91 -48 33 -67 34 -60 3z m83 -49 c20 -20 14 -45 -18 -72 -21 -17 -36 -23
-50 -18 -28 10 -27 23 6 64 31 40 43 45 62 26z"/>
<path d="M3756 1037 c-65 -59 -68 -64 -55 -85 18 -29 25 -28 24 4 0 16 8 32
22 41 20 13 23 12 51 -19 112 -123 192 -224 192 -242 0 -22 10 -20 43 9 32 28
33 33 9 37 -18 3 -232 249 -232 267 0 4 7 14 16 22 12 10 20 10 35 1 27 -17
31 -15 19 8 -19 35 -52 23 -124 -43z"/>
<path d="M3575 907 c-75 -44 -107 -87 -66 -87 23 0 34 -15 125 -164 37 -60 64
-116 62 -123 -8 -19 8 -16 48 10 40 25 44 33 17 42 -23 7 -111 132 -111 158 0
44 80 -1 127 -71 51 -78 48 -75 72 -63 24 13 27 28 8 33 -8 2 -34 28 -58 58
-25 30 -59 64 -77 75 -27 17 -30 24 -26 51 4 24 -1 38 -21 62 -29 34 -64 41
-100 19z m60 -47 c19 -36 19 -64 1 -79 -10 -9 -19 -4 -38 21 -38 51 -41 58
-28 73 20 24 48 17 65 -15z"/>
<path d="M1389 890 c-46 -24 -80 -57 -158 -152 -38 -47 -71 -78 -82 -78 -28 0
-23 -25 6 -38 35 -16 46 -15 39 3 -6 15 21 61 69 118 l23 28 27 -21 c15 -12
27 -28 27 -37 0 -26 -62 -125 -81 -130 -11 -3 -19 -8 -19 -12 0 -8 60 -44 65
-39 2 2 36 64 75 138 59 111 72 144 74 185 1 58 -10 64 -65 35z m31 -25 c0
-19 -19 -63 -43 -97 -17 -27 -19 -27 -43 -12 -34 23 -30 37 22 83 50 44 64 50
64 26z"/>
<path d="M1522 828 c-6 -6 -12 -18 -12 -25 0 -10 4 -11 18 -2 22 14 72 4 72
-13 0 -25 -144 -318 -157 -318 -22 0 -15 -16 12 -28 34 -16 56 -15 49 1 -3 10
125 297 142 316 2 2 15 0 30 -3 22 -6 25 -11 20 -31 -4 -14 -2 -25 4 -25 12 0
24 45 16 58 -6 11 -126 69 -159 77 -12 3 -28 0 -35 -7z"/>
<path d="M3367 793 c-4 -3 -7 -36 -7 -72 0 -50 10 -95 40 -185 27 -81 36 -123
30 -131 -17 -21 1 -24 36 -8 38 18 44 33 15 33 -15 0 -25 18 -47 75 -29 82
-27 91 22 101 29 6 32 3 66 -63 19 -37 33 -76 31 -85 -5 -22 0 -22 38 -3 29
16 29 16 13 48 -104 204 -203 325 -237 290z m79 -111 c26 -43 26 -46 8 -59
-45 -33 -74 6 -74 101 0 38 0 39 20 21 11 -10 32 -38 46 -63z"/>
<path d="M1763 717 c18 -15 18 -17 -80 -294 -10 -29 -21 -43 -36 -45 -18 -3
-14 -8 23 -25 65 -30 118 -45 130 -38 5 3 10 16 10 28 0 19 -1 20 -13 3 -10
-14 -18 -15 -39 -7 -14 5 -29 14 -32 20 -7 10 18 110 35 143 10 19 49 13 49
-8 0 -14 20 -20 20 -6 0 4 3 18 6 32 5 19 4 22 -5 14 -7 -7 -22 -9 -33 -6 -17
4 -19 10 -14 44 4 22 14 56 24 76 16 32 22 37 51 35 35 -1 54 -19 46 -40 -2
-7 0 -13 4 -13 10 0 21 24 21 44 0 14 -77 40 -145 50 -35 6 -38 5 -22 -7z"/>
<path d="M3138 698 c-68 -31 -82 -44 -52 -50 11 -2 31 -45 61 -128 74 -207 70
-190 48 -207 -19 -13 -18 -14 10 -8 59 13 130 38 143 49 13 13 7 46 -9 46 -5
0 -9 -9 -9 -20 0 -20 -36 -36 -61 -28 -13 4 -59 112 -59 139 0 20 34 31 49 16
12 -12 14 -3 5 31 -7 24 -24 30 -24 8 0 -7 -11 -16 -24 -18 -21 -4 -26 2 -45
56 -12 34 -21 69 -21 78 0 31 73 53 83 26 2 -7 8 -9 13 -5 11 10 -9 41 -27 44
-8 1 -44 -12 -81 -29z"/>
<path d="M1955 660 c3 -5 15 -10 27 -10 17 0 19 -4 13 -22 -4 -13 -10 -43 -14
-68 -16 -91 -53 -216 -72 -243 -12 -16 -18 -31 -16 -34 3 -2 24 -7 47 -10 41
-6 42 -5 29 15 -11 18 -10 33 10 99 26 92 37 106 57 79 17 -23 22 -20 30 22 6
32 -11 48 -18 17 -2 -9 -8 -11 -16 -7 -9 6 -10 21 -2 62 6 30 14 58 19 63 5 5
28 6 50 2 37 -6 41 -9 41 -36 0 -18 4 -28 10 -24 6 3 10 19 10 35 0 22 -5 31
-22 35 -172 39 -194 42 -183 25z"/>
<path d="M2963 653 c-20 -7 -15 -23 6 -23 13 0 22 -12 31 -45 7 -25 10 -48 7
-51 -11 -11 -90 -25 -97 -17 -13 14 -21 93 -10 93 5 0 10 5 10 11 0 14 -79 4
-94 -12 -6 -6 -6 -9 1 -9 6 0 16 -15 22 -32 24 -66 71 -297 64 -314 -5 -15 -1
-16 32 -11 47 8 51 12 31 32 -9 9 -19 28 -22 43 -3 15 -10 43 -15 62 -5 19 -9
51 -9 71 0 35 2 37 45 49 25 7 48 10 52 6 14 -14 52 -211 43 -220 -18 -18 -10
-26 18 -20 35 9 34 6 17 40 -25 51 -77 285 -72 321 5 31 4 33 -21 32 -15 0
-33 -3 -39 -6z"/>
<path d="M2194 553 c0 -38 -2 -118 -5 -179 -4 -99 -2 -114 15 -133 19 -21 58
-27 91 -15 31 12 57 84 71 203 8 64 19 127 25 140 12 29 -1 41 -43 41 -30 0
-35 -9 -17 -27 8 -8 8 -32 0 -84 -5 -41 -13 -102 -16 -136 -10 -94 -60 -146
-86 -89 -8 17 -7 62 5 168 9 80 19 153 22 162 5 13 -1 16 -27 16 l-34 0 -1
-67z"/>
<path d="M2447 593 c-4 -3 -1 -13 6 -21 18 -22 17 -333 -2 -356 -12 -15 -7
-16 63 -16 l76 0 0 49 c0 28 -4 53 -10 56 -6 4 -10 -12 -10 -39 0 -45 -1 -46
-32 -46 l-31 0 7 175 c3 96 9 182 12 190 5 12 -2 15 -33 15 -22 0 -43 -3 -46
-7z"/>
</g>
</svg>
